<?xml version="1.0" encoding="utf-8"?>
<svg version="1.1" id="Layer_1" xmlns="http://www.w3.org/2000/svg" xmlns:xlink="http://www.w3.org/1999/xlink" x="0px" y="0px"
	 viewBox="0 0 222.7 235.2" style="enable-background:new 0 0 222.7 235.2;" xml:space="preserve" preserveAspectRatio="xMidYMid slice">
<style type="text/css">
	.st0{opacity:0.19;fill:#FFFFFF;}
</style>
<path class="st0" d="M102,37.4c-0.3-1.8,1-3.5,2.8-3.8c1.8-0.3,3.5,1,3.8,2.8l5.3,37.3c0.3,1.8-1,3.5-2.8,3.8c-0.2,0-0.3,0-0.5,0
	c-1.6,0-3.1-1.2-3.3-2.9L102,37.4z M93.2,93.3c0.7,0.9,1.6,1.3,2.6,1.3c0.7,0,1.4-0.2,2-0.7c1.5-1.1,1.7-3.2,0.6-4.7L69.1,50.9
	c-1.1-1.5-3.2-1.7-4.7-0.6c-1.5,1.1-1.7,3.2-0.6,4.7L93.2,93.3z M38.5,62.2l1.1,0.8c0.6,0.5,1.3,0.7,2,0.7c1,0,2-0.4,2.6-1.3
	c1.1-1.5,0.8-3.5-0.6-4.7L42.6,57c-1.5-1.1-3.5-0.8-4.7,0.6C36.8,59,37.1,61.1,38.5,62.2L38.5,62.2z M35.7,103.5
	c-1.8-0.2-3.5,1-3.7,2.9c-0.2,1.8,1,3.5,2.9,3.7l34,4.5c0.1,0,0.3,0,0.4,0c1.6,0,3.1-1.2,3.3-2.9c0.2-1.8-1-3.5-2.9-3.7L35.7,103.5z
	 M49.4,70.6l32.4,24.9c0.6,0.5,1.3,0.7,2,0.7c1,0,2-0.4,2.6-1.3c1.1-1.5,0.8-3.5-0.6-4.7L53.5,65.3c-1.5-1.1-3.5-0.8-4.7,0.6
	C47.7,67.4,47.9,69.5,49.4,70.6L49.4,70.6z M121,77.8c0.2,0,0.3,0,0.5,0c1.6,0,3.1-1.2,3.3-2.9l5.1-37.6c0.2-1.8-1-3.5-2.9-3.7
	c-1.8-0.2-3.5,1-3.7,2.9L118.1,74C117.9,75.9,119.2,77.5,121,77.8L121,77.8z M196.9,124.8l-45.7-6c-1.8-0.2-3.5,1-3.7,2.9
	c-0.2,1.8,1,3.5,2.9,3.7l45.7,6c0.1,0,0.3,0,0.4,0c1.6,0,3.1-1.2,3.3-2.9C200,126.7,198.7,125.1,196.9,124.8L196.9,124.8z
	 M199.7,106.5c-0.2-1.8-1.9-3.1-3.7-2.9l-34.3,4.5c-1.8,0.2-3.1,1.9-2.9,3.7c0.2,1.7,1.7,2.9,3.3,2.9c0.1,0,0.3,0,0.4,0l34.3-4.5
	C198.7,110,200,108.3,199.7,106.5L199.7,106.5z M178.4,65.4l-32.2,24.7c-1.5,1.1-1.7,3.2-0.6,4.7c0.7,0.9,1.6,1.3,2.6,1.3
	c0.7,0,1.4-0.2,2-0.7l32.2-24.7c1.5-1.1,1.7-3.2,0.6-4.7C181.9,64.6,179.8,64.3,178.4,65.4L178.4,65.4z M169.4,47.7
	c0.6,0.5,1.3,0.7,2,0.7c1,0,2-0.4,2.6-1.3l0.3-0.4c1.1-1.5,0.8-3.5-0.6-4.7c-1.5-1.1-3.5-0.8-4.7,0.6l-0.3,0.4
	C167.7,44.5,168,46.6,169.4,47.7L169.4,47.7z M175.4,40c0.6,0.5,1.3,0.7,2,0.7c1,0,2-0.4,2.6-1.3l0.3-0.4c1.1-1.5,0.8-3.5-0.6-4.7
	c-1.5-1.1-3.5-0.8-4.7,0.6l-0.3,0.4C173.6,36.8,173.9,38.9,175.4,40L175.4,40z M134.1,93.8c0.6,0.5,1.3,0.7,2,0.7c1,0,2-0.4,2.6-1.3
	L168,55.1c1.1-1.5,0.8-3.5-0.6-4.7c-1.5-1.1-3.5-0.8-4.7,0.6l-29.3,38.1C132.4,90.5,132.6,92.6,134.1,93.8L134.1,93.8z M33.5,54.1
	c1.1-1.5,0.8-3.5-0.6-4.7L32.3,49c-1.5-1.1-3.5-0.8-4.7,0.6c-1.1,1.5-0.8,3.5,0.6,4.7l0.6,0.4c0.6,0.5,1.3,0.7,2,0.7
	C31.8,55.4,32.8,55,33.5,54.1L33.5,54.1z M137.1,143.4c0.3,1.3-0.2,2.7-1.3,3.5c-1.1,0.8-2.6,0.8-3.8,0l-15.6-10.4L99.6,147
	c-0.5,0.3-1.1,0.5-1.8,0.5c-0.7,0-1.4-0.2-2-0.7c-1.1-0.8-1.6-2.2-1.2-3.6l5.1-18l-15.1-12.8c-1.1-0.9-1.5-2.3-1-3.6
	c0.4-1.3,1.6-2.2,3-2.2l18.7-0.8l7.5-18.3c0.5-1.3,1.8-2.1,3.1-2.1c1.4,0,2.6,0.9,3.1,2.2l6.5,17.6l19.7,1.4c1.4,0.1,2.5,1,2.9,2.3
	c0.4,1.3,0,2.7-1.1,3.6l-14.7,11.6L137.1,143.4z M126.5,120.3l9.7-7.6l-13.3-1c-1.3-0.1-2.4-0.9-2.9-2.2L115.7,98l-5,12.4
	c-0.5,1.2-1.6,2-2.9,2.1l-12.3,0.5l10.2,8.6c1,0.8,1.4,2.2,1.1,3.4l-3.3,11.8l11.3-7.1c1.1-0.7,2.5-0.7,3.6,0.1l10.2,6.8l-3.2-13
	C125.1,122.4,125.5,121.1,126.5,120.3L126.5,120.3z M181.6,197.8c-1.1-1.5-3.2-1.7-4.7-0.6c-1.5,1.1-1.7,3.2-0.6,4.7l0.5,0.6
	c0.7,0.9,1.6,1.3,2.6,1.3c0.7,0,1.4-0.2,2-0.7c1.5-1.1,1.7-3.2,0.6-4.7L181.6,197.8z M175.2,189.4l-0.5-0.6
	c-1.1-1.5-3.2-1.7-4.7-0.6c-1.5,1.1-1.7,3.2-0.6,4.7l0.5,0.6c0.7,0.9,1.6,1.3,2.6,1.3c0.7,0,1.4-0.2,2-0.7
	C176.1,193,176.3,190.9,175.2,189.4L175.2,189.4z M182.3,164.3l-31-23.8c-1.5-1.1-3.5-0.8-4.7,0.6c-1.1,1.5-0.8,3.5,0.6,4.7l31,23.8
	c0.6,0.5,1.3,0.7,2,0.7c1,0,2-0.4,2.6-1.3C184.1,167.6,183.8,165.5,182.3,164.3L182.3,164.3z M151.4,158.4c-1.1-1.5-3.2-1.7-4.7-0.6
	c-1.5,1.1-1.7,3.2-0.6,4.7l16.5,21.6c0.7,0.9,1.6,1.3,2.6,1.3c0.7,0,1.4-0.2,2-0.7c1.5-1.1,1.7-3.2,0.6-4.7L151.4,158.4z M85.2,141
	c-1.1-1.5-3.2-1.7-4.7-0.6l-31.2,23.9c-1.5,1.1-1.7,3.2-0.6,4.7c0.7,0.9,1.6,1.3,2.6,1.3c0.7,0,1.4-0.2,2-0.7l31.2-23.9
	C86,144.5,86.3,142.4,85.2,141L85.2,141z M83.9,121.6c-0.2-1.8-1.9-3.1-3.7-2.9l-45.4,5.9c-1.8,0.2-3.1,1.9-2.9,3.7
	c0.2,1.7,1.6,2.9,3.3,2.9c0.1,0,0.3,0,0.4,0l45.4-5.9C82.9,125.1,84.2,123.5,83.9,121.6L83.9,121.6z M124.7,160.7
	c-0.2-1.8-1.9-3.1-3.7-2.9c-1.8,0.2-3.1,1.9-2.8,3.7l5.1,37.6c0.2,1.7,1.7,2.9,3.3,2.9c0.1,0,0.3,0,0.5,0c1.8-0.2,3.1-1.9,2.9-3.7
	L124.7,160.7z M111.1,158.2c-1.8-0.3-3.5,1-3.8,2.8l-5.3,37.3c-0.3,1.8,1,3.5,2.8,3.8c0.2,0,0.3,0,0.5,0c1.6,0,3.1-1.2,3.3-2.9
	l5.3-37.3C114.1,160.1,112.9,158.4,111.1,158.2L111.1,158.2z M85,157.7c-1.5-1.1-3.5-0.8-4.7,0.6l-16.6,21.6
	c-1.1,1.5-0.8,3.5,0.6,4.7c0.6,0.5,1.3,0.7,2,0.7c1,0,2-0.4,2.6-1.3l16.6-21.6C86.7,160.9,86.4,158.8,85,157.7L85,157.7z M85,157.7"
	/>
</svg>
