<?xml version="1.0" encoding="utf-8"?>
<!-- Generator: Adobe Illustrator 18.1.0, SVG Export Plug-In . SVG Version: 6.00 Build 0)  -->
<!DOCTYPE svg PUBLIC "-//W3C//DTD SVG 1.1//EN" "http://www.w3.org/Graphics/SVG/1.1/DTD/svg11.dtd">
<svg version="1.1" id="Livello_1" xmlns="http://www.w3.org/2000/svg" xmlns:xlink="http://www.w3.org/1999/xlink" x="0px" y="0px"
	 viewBox="0 0 515 520.5" enable-background="new 0 0 515 520.5" xml:space="preserve">
<circle fill="#77B4BE" cx="256" cy="264.5" r="256"/>
<g>
	<rect x="72" y="40.3" fill="#F8F8F8" width="374" height="458.4"/>
	<rect x="101.4" y="81.9" fill="#CE5959" width="140" height="122.5"/>
	<g>
		<rect x="270.4" y="82.4" fill="#2E3B43" width="141" height="5"/>
	</g>
	<g>
		<rect x="270.4" y="102.4" fill="#2E3B43" width="141" height="5"/>
	</g>
	<g>
		<rect x="270.4" y="121.4" fill="#2E3B43" width="141" height="5"/>
	</g>
	<g>
		<rect x="270.4" y="141.4" fill="#2E3B43" width="141" height="5"/>
	</g>
	<g>
		<rect x="270.4" y="163.4" fill="#2E3B43" width="141" height="5"/>
	</g>
	<g>
		<rect x="270.4" y="183.4" fill="#2E3B43" width="141" height="20.1"/>
	</g>
	<circle fill="#E8B750" cx="131.9" cy="272.8" r="30.5"/>
	<circle fill="#E8B750" cx="214.9" cy="272.8" r="30.5"/>
	<circle fill="#E8B750" cx="297.9" cy="272.8" r="30.5"/>
	<circle fill="#E8B750" cx="380.9" cy="272.8" r="30.5"/>
	<rect x="350.4" y="338.1" fill="#C0D7A1" width="61" height="96.6"/>
	<g>
		<rect x="100.9" y="340.5" fill="#2E3B43" width="232" height="5"/>
	</g>
	<g>
		<rect x="100.9" y="352.5" fill="#2E3B43" width="232" height="5"/>
	</g>
	<g>
		<rect x="100.9" y="365.5" fill="#2E3B43" width="232" height="5"/>
	</g>
	<g>
		<rect x="100.9" y="403.5" fill="#2E3B43" width="232" height="5"/>
	</g>
	<g>
		<rect x="100.9" y="416.5" fill="#2E3B43" width="232" height="5"/>
	</g>
	<g>
		<rect x="100.9" y="428.5" fill="#2E3B43" width="232" height="5"/>
	</g>
	<g>
		<path fill="#CE5959" d="M374.7,136.4c-22.1,0-40-17.9-40-40s17.9-40,40-40s40,17.9,40,40S396.8,136.4,374.7,136.4z M374.7,66.4
			c-16.5,0-30,13.5-30,30s13.5,30,30,30s30-13.5,30-30S391.3,66.4,374.7,66.4z"/>
	</g>
	<g>
		<path fill="#CE5959" d="M403.7,439.7c-18.8,0-34-15.3-34-34s15.3-34,34-34s34,15.3,34,34S422.5,439.7,403.7,439.7z M403.7,381.7
			c-13.2,0-24,10.8-24,24s10.8,24,24,24s24-10.8,24-24S417,381.7,403.7,381.7z"/>
	</g>
	<g>
		<path fill="#CE5959" d="M113.9,389.4c-17.4,0-31.5-14.1-31.5-31.5s14.1-31.5,31.5-31.5s31.5,14.1,31.5,31.5
			S131.3,389.4,113.9,389.4z M113.9,336.4c-11.9,0-21.5,9.6-21.5,21.5s9.6,21.5,21.5,21.5s21.5-9.6,21.5-21.5
			S125.8,336.4,113.9,336.4z"/>
	</g>
	<g>
		<line fill="#CE5959" x1="421.6" y1="53.6" x2="489.6" y2="3.8"/>
		<g>
			<polygon fill="#CE5959" points="421.6,53.6 474.8,9 480.1,16.3 			"/>
			<g>
				<polygon fill="#CE5959" points="465.3,0 485.8,28 489.6,3.8 				"/>
			</g>
		</g>
	</g>
	<g>
		<path fill="#CE5959" d="M76.4,376.7C72,377.4,3,416.5,3,416.5"/>
		<g>
			<path fill="#CE5959" d="M76.4,376.7c0,0-0.2,0.1-0.7,0.3c-0.5,0.2-1.1,0.5-1.9,1c-0.8,0.5-1.8,1-2.9,1.6
				c-1.1,0.6-2.3,1.4-3.7,2.2C62,385,54.9,389.5,47.9,394c-14.1,9-28.1,18.1-28.1,18.1l-4.3-7.7c0,0,15.1-7.2,30.3-14.3
				c7.6-3.5,15.2-7,20.9-9.6c1.4-0.6,2.8-1.2,3.9-1.7c1.2-0.5,2.2-0.9,3.1-1.3c0.9-0.3,1.5-0.6,2-0.7
				C76.2,376.8,76.4,376.7,76.4,376.7z"/>
			<g>
				<polygon fill="#CE5959" points="29.4,423.9 10.4,390.1 3,416.5 				"/>
			</g>
		</g>
	</g>
	<g>
		<line fill="#CE5959" x1="437.7" y1="428.5" x2="515" y2="463.4"/>
		<g>
			<polygon fill="#CE5959" points="437.7,428.5 509.2,455.9 505.5,464.1 			"/>
			<g>
				<polygon fill="#CE5959" points="510.1,450.6 502.1,468.3 515,463.4 				"/>
			</g>
		</g>
	</g>
</g>
<g>
</g>
<g>
</g>
<g>
</g>
<g>
</g>
<g>
</g>
<g>
</g>
<g>
</g>
<g>
</g>
<g>
</g>
<g>
</g>
<g>
</g>
<g>
</g>
<g>
</g>
<g>
</g>
<g>
</g>
</svg>
